<svg width="107" height="183" viewBox="0 0 107 183" fill="none" xmlns="http://www.w3.org/2000/svg">
<g clip-path="url(#clip0_12_174)">
<path d="M6.47353 123.725H10.1394C11.3908 123.725 12.6261 123.749 13.8454 123.796C14.5834 123.828 15.3053 123.86 15.9952 123.908C16.685 123.956 17.2545 124.58 17.2144 125.292L17.1663 125.979C17.1182 126.667 16.5486 127.195 15.8588 127.195H7.78105C7.13932 127.195 6.65802 127.355 6.3532 127.675C6.04036 127.994 5.88795 128.498 5.88795 129.186V142.1C5.88795 142.787 6.04036 143.291 6.3532 143.611C6.66605 143.931 7.13932 144.091 7.78105 144.091H15.8588C16.5486 144.091 17.1182 144.626 17.1663 145.306L17.2144 145.986C17.2626 146.705 16.7171 147.329 15.9952 147.369C15.2732 147.409 14.5914 147.441 13.8534 147.465C12.6341 147.497 11.3988 147.521 10.1474 147.537C8.89605 147.545 7.67677 147.553 6.48155 147.553C5.0136 147.553 3.83442 147.145 2.95205 146.338C2.06967 145.522 1.61244 144.435 1.58838 143.059V128.226C1.61244 126.851 2.06165 125.764 2.95205 124.948C3.83442 124.132 5.0136 123.733 6.48155 123.733L6.47353 123.725ZM3.51356 133.504H14.4711C15.193 133.504 15.7786 134.088 15.7786 134.807V135.359C15.7786 136.079 15.193 136.662 14.4711 136.662H3.51356C2.79162 136.662 2.20604 136.079 2.20604 135.359V134.807C2.20604 134.088 2.79162 133.504 3.51356 133.504Z" fill="white"/>
<path d="M39.3059 123.788C40.1081 123.788 40.7498 124.436 40.7498 125.228V145.866C40.7498 146.945 40.2204 147.481 39.1615 147.481H36.2336C35.7523 147.481 35.3833 147.369 35.1347 147.153C34.878 146.937 34.6534 146.609 34.4448 146.178L27.2495 131.897C26.9928 131.393 26.7361 130.841 26.4714 130.233C26.2067 129.626 25.9981 129.05 25.8377 128.498H25.3884C25.4366 129.074 25.4767 129.65 25.5088 130.233C25.5409 130.817 25.5569 131.393 25.5569 131.969V146.05C25.5569 146.849 24.9072 147.489 24.113 147.489H22.8697C22.0675 147.489 21.4258 146.841 21.4258 146.05V125.412C21.4258 124.332 21.9552 123.796 23.0141 123.796H25.8697C26.351 123.796 26.72 123.908 26.9687 124.124C27.2174 124.34 27.45 124.668 27.6586 125.1L34.6534 139.005C34.9261 139.509 35.2069 140.077 35.4957 140.708C35.7844 141.34 36.0491 141.972 36.3058 142.611H36.8192C36.7711 141.948 36.731 141.3 36.6989 140.668C36.6668 140.037 36.6508 139.413 36.6508 138.797V125.236C36.6508 124.436 37.3005 123.796 38.0946 123.796H39.3059V123.788Z" fill="white"/>
<path d="M63.138 124.884V126.203C63.138 126.803 62.6487 127.291 62.047 127.291H45.1857C44.584 127.291 44.0947 126.803 44.0947 126.203V124.884C44.0947 124.284 44.584 123.796 45.1857 123.796H62.047C62.6487 123.796 63.138 124.284 63.138 124.884ZM55.7661 124.884V146.394C55.7661 146.993 55.2768 147.481 54.6752 147.481H52.5575C51.9559 147.481 51.4666 146.993 51.4666 146.394V124.884C51.4666 124.284 51.9559 123.796 52.5575 123.796H54.6752C55.2768 123.796 55.7661 124.284 55.7661 124.884Z" fill="white"/>
<path d="M75.2264 123.485C77.1998 123.485 78.8041 123.693 80.0314 124.1C81.2587 124.516 82.1571 125.22 82.7186 126.211C83.2801 127.211 83.5609 128.61 83.5609 130.417C83.5609 131.609 83.4165 132.624 83.1277 133.456C82.8389 134.295 82.3737 134.959 81.7159 135.447C81.0581 135.943 80.1838 136.254 79.0848 136.39V136.566C79.4779 136.654 79.879 136.838 80.3041 137.102C80.7293 137.366 81.1223 137.734 81.4753 138.222C81.8282 138.701 82.101 139.317 82.2854 140.077L84.1866 146.578C84.3229 147.033 83.978 147.489 83.4967 147.489H80.4485C80.1276 147.489 79.8389 147.273 79.7586 146.961L77.9377 140.173C77.6811 139.349 77.3441 138.773 76.903 138.437C76.4698 138.11 75.8682 137.942 75.1141 137.942C73.6221 137.942 72.3467 137.942 71.2878 137.926C70.229 137.918 69.3546 137.894 68.6568 137.878C68.2557 137.862 67.8787 137.854 67.5337 137.846C67.1327 137.846 66.8198 137.51 66.8359 137.11L66.892 135.263C66.9081 134.879 67.2209 134.575 67.6059 134.575H75.1141C76.1489 134.551 76.9591 134.431 77.5607 134.215C78.1543 134 78.5795 133.608 78.8362 133.048C79.0848 132.488 79.2132 131.689 79.2132 130.665C79.2132 129.642 79.0848 128.882 78.8362 128.33C78.5795 127.779 78.1624 127.395 77.5607 127.179C76.9671 126.963 76.1489 126.851 75.1141 126.851C73.0927 126.851 71.36 126.859 69.9162 126.883C68.9215 126.899 68.1434 126.915 67.5819 126.931C67.2209 126.939 66.9161 126.683 66.8599 126.323L66.5872 124.54C66.523 124.132 66.8198 123.756 67.2289 123.725C67.8706 123.669 68.4883 123.621 69.0739 123.589C69.8921 123.541 70.7825 123.517 71.7451 123.501C72.7077 123.493 73.8708 123.485 75.2264 123.485ZM70.7183 124.5V146.769C70.7183 147.161 70.3974 147.481 70.0044 147.481H67.1968C66.8038 147.481 66.4829 147.161 66.4829 146.769V124.5C66.4829 124.108 66.8038 123.788 67.1968 123.788H70.0044C70.3974 123.788 70.7183 124.108 70.7183 124.5Z" fill="white"/>
<path d="M93.0343 123.725H96.7002C97.9516 123.725 99.1869 123.749 100.406 123.796C101.329 123.828 102.211 123.876 103.061 123.94C103.502 123.972 103.831 124.356 103.799 124.796L103.695 126.443C103.671 126.867 103.318 127.195 102.893 127.195H94.3499C93.7081 127.195 93.2268 127.355 92.922 127.675C92.6092 127.994 92.4568 128.498 92.4568 129.186V142.1C92.4568 142.787 92.6092 143.291 92.922 143.611C93.2349 143.931 93.7081 144.091 94.3499 144.091H102.893C103.318 144.091 103.679 144.419 103.703 144.85L103.807 146.49C103.839 146.929 103.502 147.321 103.061 147.345C102.219 147.401 101.337 147.449 100.414 147.473C99.1949 147.505 97.9596 147.529 96.7082 147.545C95.4568 147.553 94.2376 147.561 93.0423 147.561C91.5744 147.561 90.3952 147.153 89.5128 146.346C88.6305 145.53 88.1732 144.443 88.1492 143.067V128.234C88.1732 126.859 88.6224 125.772 89.5128 124.956C90.3952 124.14 91.5744 123.74 93.0423 123.74L93.0343 123.725ZM88.7668 133.504H101.625C102.019 133.504 102.339 133.824 102.339 134.215V135.959C102.339 136.35 102.019 136.67 101.625 136.67H88.7668V133.512V133.504Z" fill="white"/>
<path d="M23.784 154.454V155.645C23.784 156.525 23.0701 157.236 22.1877 157.236H1.5963C0.713922 157.236 0 156.525 0 155.645V154.454C0 153.574 0.713922 152.862 1.5963 152.862H22.1797C23.0621 152.862 23.776 153.574 23.776 154.454H23.784ZM14.5752 154.454V180.849C14.5752 181.729 13.8613 182.44 12.9789 182.44H10.7971C9.91469 182.44 9.20076 181.729 9.20076 180.849V154.454C9.20076 153.574 9.91469 152.862 10.7971 152.862H12.9789C13.8613 152.862 14.5752 153.574 14.5752 154.454Z" fill="white"/>
<path d="M38.7444 152.303C41.0385 152.303 42.9717 152.551 44.552 153.054C46.1322 153.558 47.3916 154.39 48.3382 155.565C49.2847 156.741 49.9826 158.308 50.4238 160.283C50.865 162.258 51.0896 164.713 51.0896 167.655C51.0896 170.598 50.865 173.021 50.4238 175.004C49.9826 176.987 49.2847 178.57 48.3382 179.738C47.3916 180.913 46.1322 181.745 44.552 182.248C42.9717 182.744 41.0385 183 38.7444 183C36.4502 183 34.5972 182.752 33.025 182.248C31.4447 181.753 30.1693 180.913 29.1987 179.738C28.22 178.562 27.5222 176.987 27.089 175.004C26.6558 173.021 26.4473 170.566 26.4473 167.655C26.4473 164.745 26.6638 162.258 27.089 160.283C27.5222 158.308 28.22 156.741 29.1987 155.565C30.1693 154.39 31.4527 153.558 33.025 153.054C34.6052 152.559 36.5063 152.303 38.7444 152.303ZM38.7444 156.677C37.0518 156.677 35.7282 157.012 34.7657 157.684C33.8031 158.356 33.1212 159.483 32.7201 161.067C32.3191 162.65 32.1185 164.849 32.1185 167.647C32.1185 170.446 32.3191 172.645 32.7201 174.228C33.1212 175.811 33.8031 176.947 34.7657 177.619C35.7282 178.29 37.0518 178.626 38.7444 178.626C40.4369 178.626 41.8006 178.29 42.7632 177.619C43.7258 176.947 44.4076 175.819 44.8087 174.228C45.2098 172.645 45.4103 170.446 45.4103 167.647C45.4103 164.849 45.2098 162.65 44.8087 161.067C44.4076 159.483 43.7258 158.356 42.7632 157.684C41.8006 157.012 40.461 156.677 38.7444 156.677Z" fill="white"/>
<path d="M79.3015 152.862C80.1358 152.862 80.8096 153.534 80.8096 154.366V180.425C80.8096 181.769 80.1518 182.44 78.8282 182.44H75.1704C74.5688 182.44 74.1115 182.304 73.7907 182.032C73.4778 181.761 73.1891 181.353 72.9324 180.809L63.9402 162.978C63.6273 162.346 63.2984 161.658 62.9696 160.899C62.6407 160.139 62.376 159.419 62.1754 158.732H61.6139C61.6701 159.443 61.7182 160.171 61.7663 160.899C61.8144 161.626 61.8305 162.346 61.8305 163.066V180.937C61.8305 181.769 61.1567 182.44 60.3224 182.44H58.1807C57.3464 182.44 56.6726 181.769 56.6726 180.937V154.878C56.6726 153.534 57.3304 152.862 58.6539 152.862H62.2235C62.8252 152.862 63.2824 152.998 63.6033 153.27C63.9161 153.542 64.2049 153.95 64.4616 154.494L73.1891 171.853C73.534 172.485 73.8869 173.189 74.2399 173.972C74.6009 174.756 74.9378 175.548 75.2506 176.355H75.8923C75.8362 175.524 75.7881 174.716 75.7399 173.932C75.6998 173.149 75.6758 172.365 75.6758 171.597V154.366C75.6758 153.534 76.3496 152.862 77.1838 152.862H79.2855H79.3015Z" fill="white"/>
<path d="M96.548 152.303C98.0079 152.335 99.5481 152.415 101.168 152.559C102.588 152.687 103.984 152.91 105.356 153.23C105.685 153.31 105.901 153.614 105.869 153.95L105.636 156.397C105.604 156.749 105.308 157.012 104.955 157.005C103.872 156.981 102.652 156.949 101.305 156.909C99.6844 156.869 98.1282 156.845 96.6362 156.845C95.7218 156.845 94.9356 156.877 94.2939 156.933C93.6522 156.989 93.1228 157.132 92.7217 157.364C92.3206 157.596 92.0238 157.94 91.8393 158.412C91.6548 158.884 91.5585 159.531 91.5585 160.363C91.5585 161.65 91.8233 162.562 92.3527 163.106C92.8821 163.649 93.7484 164.081 94.9517 164.393L100.799 166.104C103.15 166.816 104.77 167.855 105.661 169.215C106.551 170.574 106.992 172.381 106.992 174.636C106.992 176.323 106.792 177.707 106.39 178.794C105.989 179.882 105.372 180.721 104.537 181.321C103.703 181.921 102.612 182.352 101.273 182.608C99.9251 182.864 98.3047 182.992 96.4116 182.992C95.433 182.992 94.0934 182.936 92.3928 182.824C90.8446 182.72 89.0959 182.472 87.1547 182.088C86.8178 182.024 86.5852 181.713 86.6172 181.369L86.8499 178.738C86.882 178.386 87.1868 178.114 87.5477 178.13C88.9595 178.178 90.1708 178.218 91.1655 178.258C92.3126 178.298 93.2992 178.322 94.1335 178.322H96.4597C97.7753 178.322 98.8101 178.234 99.5561 178.066C100.302 177.898 100.823 177.539 101.128 176.995C101.433 176.451 101.578 175.668 101.578 174.636C101.578 173.748 101.473 173.061 101.257 172.557C101.04 172.061 100.687 171.661 100.206 171.382C99.7165 171.094 99.0908 170.854 98.3127 170.654L92.2484 168.807C90.0104 168.119 88.4462 167.104 87.5397 165.76C86.6333 164.417 86.1841 162.618 86.1841 160.355C86.1841 158.668 86.3846 157.292 86.7857 156.221C87.1868 155.149 87.8044 154.334 88.6387 153.774C89.4729 153.214 90.5398 152.831 91.8393 152.615C93.1468 152.399 94.711 152.295 96.548 152.295V152.303Z" fill="white"/>
<path d="M56.5282 5.00559C59.6325 11.2506 58.4052 17.1518 55.5255 22.941C53.6244 26.7631 51.0173 30.1215 48.2659 33.36C47.6563 34.0716 47.4718 34.7273 47.6563 35.6549C48.3782 39.3331 49.028 43.0353 49.6617 46.7295C49.8382 47.761 50.3034 48.2328 51.3783 48.0409C55.8383 47.2573 60.0416 48.1688 64.0685 50.0399C65.1033 50.5197 65.6407 50.3998 66.2343 49.4002C68.4884 45.6261 70.8307 41.8919 72.9163 38.0137C73.9992 36.0067 74.9778 34.0076 75.411 31.7048C75.8281 29.5218 77.1918 27.6427 78.0902 25.6117C79.1651 23.1889 80.3443 20.814 81.4111 18.3912C81.8684 17.3517 82.5663 16.9439 83.6652 17.0798C86.8337 17.4636 89.537 18.823 91.9114 20.9099C92.6735 21.5816 92.7537 22.2533 92.2403 23.1409C90.1787 26.6592 88.1733 30.2175 86.1118 33.7438C85.2695 35.1831 84.1305 36.3985 82.6064 37.1261C81.3871 37.7019 80.5769 38.6374 79.9272 39.7489C77.2239 44.4266 74.5447 49.1284 71.8093 53.7901C71.3039 54.6537 71.697 55.1175 72.2345 55.7012C75.9484 59.7873 78.0822 64.553 77.9859 70.1023C77.8816 75.8036 75.8763 80.7772 71.4724 84.5833C68.4803 87.1741 66.9001 90.2366 67.1327 94.3226C67.4616 100.088 65.8894 105.373 61.9668 109.739C58.0362 114.113 52.9024 116.24 47.1509 116.576C38.0224 117.12 29.9286 114.297 23.2386 108.044C15.5619 100.855 16.2277 89.1811 24.522 82.7042C24.9391 82.3844 25.3322 82.0406 25.6932 81.7447C25.7493 81.081 25.3001 80.8091 24.9873 80.4653C18.4497 73.1888 17.7839 65.0807 21.6343 56.3969C24.145 50.7196 28.1398 46.1298 32.672 41.9638C35.5678 39.3091 38.3914 36.5824 41.2872 33.9277C42.0973 33.184 42.2658 32.3764 42.0251 31.3609C40.7657 26.1074 39.7069 20.814 39.3941 15.4006C39.1935 11.9862 39.4743 8.61186 41.0946 5.50136C42.6588 2.5028 44.8648 0.215897 48.5146 0.0159932C52.2607 -0.183911 54.6591 1.91908 56.5282 5.00559ZM56.1191 81.2569C55.6057 82.7202 54.0495 83.7357 54.6993 85.7268C55.8864 89.373 54.4345 93.1872 51.3863 95.2422C48.3221 97.3052 44.1027 97.2492 41.2069 95.1063C38.0946 92.7954 36.8191 88.9572 37.9662 85.359C39.0652 81.9126 42.3219 79.6257 46.2605 79.5777C47.191 79.5697 48.0173 79.5617 48.5868 78.6102C53.1431 71.0139 57.7154 63.4335 62.3198 55.8691C62.9615 54.8136 62.5765 54.3819 61.6219 53.974C58.8464 52.7906 55.9827 52.1749 52.9345 52.3668C50.6082 52.5187 50.3917 52.7266 50.6564 55.0295C51.0414 58.4119 51.0976 61.7943 50.5842 65.1607C50.0708 68.5191 48.7633 71.4536 45.9477 73.5566C40.9984 77.2589 35.0383 75.2278 33.4821 69.2707C32.5677 65.7844 33.1212 62.442 34.7415 59.2675C36.8432 55.1335 40.2283 52.3188 44.2551 50.1839C44.7926 49.896 45.6028 49.7521 45.4905 48.9285C45.0413 45.4821 44.3755 42.0758 43.4129 38.4695C41.223 40.4206 39.2096 42.1957 37.2202 43.9948C33.073 47.745 29.1826 51.7351 26.5595 56.7407C24.4258 60.8028 23.1584 65.0647 24.1049 69.7345C24.9231 73.7565 27.2173 76.8511 30.1452 79.5937C31.9982 81.3289 31.9179 81.9766 29.9687 83.6638C28.5649 84.8792 27.105 86.0466 25.8215 87.382C21.0166 92.3796 21.0166 99.2243 25.8616 104.182C31.9821 110.451 39.5304 112.954 48.1617 111.978C54.5308 111.258 59.055 107.844 61.5256 101.847C62.7128 98.9604 62.6647 95.9459 62.5925 92.9233C62.4962 89.1012 63.8439 85.8867 66.507 83.184C67.1006 82.5763 67.6782 81.9446 68.3279 81.4009C73.4136 77.1629 74.673 69.5346 72.0981 63.4975C71.3922 61.8343 70.4055 60.371 68.8173 59.1316C64.5578 66.536 60.3946 73.7885 56.111 81.2489M49.5895 23.5727C50.9451 21.1098 52.2687 18.615 52.766 15.8324C53.2313 13.2256 53.4719 10.5629 52.02 8.1161C51.2821 6.8607 50.2713 5.94914 48.7151 6.00511C47.175 6.05309 46.1964 6.99664 45.5306 8.29201C44.9209 9.48344 44.592 10.7548 44.5038 12.0902C44.199 16.712 44.8327 21.2618 45.6669 25.7876C45.8113 26.5632 45.6669 27.4668 46.445 28.1305C47.6001 26.7232 48.5948 25.2998 49.5815 23.5807M46.5573 61.5784C46.5974 59.2675 46.5814 56.9726 46.0359 54.7017C41.5679 55.7572 37.5651 61.6184 37.7817 66.624C37.878 68.9189 38.8566 70.4781 40.4449 70.8859C41.8968 71.2537 43.8541 70.1982 44.9049 68.4391C45.3942 67.6155 45.8193 66.7599 45.9637 65.8004C46.1563 64.489 46.3488 63.1856 46.5493 61.5864L46.5573 61.5784Z" fill="white"/>
<path d="M76.6544 23.8445C75.5234 23.7006 75.2105 23.0209 75.3629 22.1413C75.5394 21.1338 76.3095 20.6301 77.264 20.5181C77.9699 20.4382 78.4913 20.806 78.6839 21.5097C78.9486 22.4852 78.4512 23.1409 77.6731 23.6126C77.4165 23.7646 77.0715 23.7726 76.6464 23.8445H76.6544Z" fill="white"/>
<path d="M89.7856 35.1751C89.5289 35.5189 89.3524 35.7988 89.0957 35.9667C88.446 36.4145 87.7321 36.6304 87.0502 36.0707C86.3764 35.5189 86.3443 34.7913 86.7374 34.0716C87.1465 33.32 87.7722 32.8482 88.6786 33.0241C89.5129 33.184 89.954 33.7198 89.9139 34.5994C89.9139 34.7593 89.8578 34.9112 89.7856 35.1751Z" fill="white"/>
<path d="M90.9007 27.9306C91.7911 27.3229 92.5852 27.2349 93.2831 27.9865C93.7644 28.5063 93.7884 29.138 93.4435 29.7537C93.0103 30.5133 92.3365 30.8732 91.4541 30.7692C90.1145 30.6173 89.8498 29.4818 90.9007 27.9306Z" fill="white"/>
<path d="M74.9137 29.202C73.9752 29.6657 73.133 29.8257 72.6356 28.8421C72.1463 27.8826 72.6196 27.107 73.4298 26.5472C74.1116 26.0835 74.8897 26.0195 75.4432 26.6752C76.2132 27.5947 75.8202 28.4263 74.9137 29.202Z" fill="white"/>
<path d="M76.7284 29.6672L74.9902 28.4336L74.632 28.9352L76.3702 30.1688L76.7284 29.6672Z" fill="white"/>
<path d="M79.8085 23.4132L78.0703 22.1795L77.7121 22.6811L79.4503 23.9147L79.8085 23.4132Z" fill="white"/>
<path d="M87.2719 34.2057L85.5337 32.972L85.1755 33.4736L86.9136 34.7072L87.2719 34.2057Z" fill="white"/>
<path d="M90.9684 28.2478L89.2302 27.0141L88.872 27.5157L90.6102 28.7493L90.9684 28.2478Z" fill="white"/>
</g>
<defs>
<clipPath id="clip0_12_174">
<rect width="107" height="183" fill="white"/>
</clipPath>
</defs>
</svg>
