<svg width="107" height="117" viewBox="0 0 107 117" fill="none" xmlns="http://www.w3.org/2000/svg">
<g clip-path="url(#clip0_12_174)">
<path d="M56.5282 5.00559C59.6325 11.2506 58.4052 17.1518 55.5255 22.941C53.6244 26.7631 51.0173 30.1215 48.2659 33.36C47.6563 34.0716 47.4718 34.7273 47.6563 35.6549C48.3782 39.3331 49.028 43.0353 49.6617 46.7295C49.8382 47.761 50.3034 48.2328 51.3783 48.0409C55.8383 47.2573 60.0416 48.1688 64.0685 50.0399C65.1033 50.5197 65.6407 50.3998 66.2343 49.4002C68.4884 45.6261 70.8307 41.8919 72.9163 38.0137C73.9992 36.0067 74.9778 34.0077 75.411 31.7048C75.8281 29.5218 77.1918 27.6427 78.0902 25.6117C79.1651 23.1888 80.3443 20.814 81.4111 18.3912C81.8684 17.3517 82.5663 16.9439 83.6652 17.0798C86.8337 17.4636 89.537 18.823 91.9114 20.9099C92.6735 21.5816 92.7537 22.2533 92.2403 23.1409C90.1787 26.6592 88.1733 30.2175 86.1118 33.7438C85.2695 35.1831 84.1305 36.3985 82.6064 37.1261C81.3871 37.7019 80.5769 38.6374 79.9272 39.7489C77.2239 44.4266 74.5447 49.1284 71.8093 53.7901C71.3039 54.6537 71.697 55.1175 72.2345 55.7012C75.9484 59.7873 78.0822 64.553 77.9859 70.1023C77.8816 75.8035 75.8762 80.7772 71.4724 84.5833C68.4803 87.1741 66.9001 90.2366 67.1327 94.3226C67.4616 100.088 65.8894 105.373 61.9668 109.739C58.0362 114.113 52.9024 116.24 47.1509 116.576C38.0224 117.12 29.9286 114.297 23.2386 108.044C15.5619 100.856 16.2277 89.1811 24.522 82.7042C24.9391 82.3844 25.3322 82.0406 25.6932 81.7447C25.7493 81.081 25.3001 80.8091 24.9873 80.4653C18.4497 73.1888 17.7839 65.0807 21.6343 56.3969C24.145 50.7196 28.1398 46.1298 32.672 41.9638C35.5678 39.3091 38.3914 36.5824 41.2872 33.9277C42.0973 33.184 42.2658 32.3764 42.0251 31.3609C40.7657 26.1074 39.7069 20.814 39.3941 15.4006C39.1935 11.9862 39.4743 8.61186 41.0946 5.50136C42.6588 2.5028 44.8648 0.215897 48.5146 0.0159932C52.2607 -0.183911 54.6591 1.91908 56.5282 5.00559ZM56.1191 81.2569C55.6057 82.7202 54.0495 83.7357 54.6993 85.7268C55.8864 89.373 54.4345 93.1872 51.3863 95.2422C48.3221 97.3052 44.1027 97.2492 41.2069 95.1063C38.0946 92.7954 36.8191 88.9572 37.9662 85.359C39.0652 81.9126 42.3219 79.6257 46.2605 79.5777C47.191 79.5697 48.0173 79.5617 48.5868 78.6102C53.1431 71.0139 57.7154 63.4335 62.3198 55.8691C62.9615 54.8136 62.5765 54.3819 61.6219 53.974C58.8464 52.7906 55.9827 52.1749 52.9345 52.3668C50.6082 52.5187 50.3917 52.7266 50.6564 55.0295C51.0414 58.4119 51.0976 61.7943 50.5842 65.1607C50.0708 68.5191 48.7633 71.4536 45.9477 73.5566C40.9984 77.2588 35.0383 75.2278 33.4821 69.2707C32.5677 65.7844 33.1212 62.442 34.7415 59.2675C36.8432 55.1335 40.2283 52.3188 44.2551 50.1839C44.7926 49.896 45.6028 49.7521 45.4905 48.9285C45.0413 45.4821 44.3755 42.0758 43.4129 38.4695C41.223 40.4206 39.2096 42.1957 37.2202 43.9948C33.073 47.745 29.1826 51.7351 26.5595 56.7407C24.4258 60.8028 23.1584 65.0647 24.1049 69.7345C24.9231 73.7565 27.2173 76.851 30.1452 79.5937C31.9982 81.3289 31.9179 81.9766 29.9687 83.6638C28.5649 84.8792 27.105 86.0466 25.8215 87.382C21.0166 92.3796 21.0166 99.2243 25.8616 104.182C31.9821 110.451 39.5304 112.954 48.1617 111.978C54.5308 111.258 59.055 107.844 61.5256 101.847C62.7128 98.9604 62.6647 95.9459 62.5925 92.9233C62.4962 89.1012 63.8439 85.8867 66.507 83.184C67.1006 82.5763 67.6782 81.9446 68.3279 81.4009C73.4136 77.1629 74.673 69.5346 72.0981 63.4975C71.3922 61.8343 70.4055 60.371 68.8173 59.1316C64.5578 66.536 60.3946 73.7885 56.111 81.2489M49.5895 23.5727C50.9451 21.1099 52.2687 18.615 52.766 15.8324C53.2313 13.2256 53.4719 10.5629 52.02 8.1161C51.2821 6.8607 50.2713 5.94914 48.7151 6.00511C47.175 6.05309 46.1964 6.99664 45.5306 8.29201C44.9209 9.48344 44.592 10.7548 44.5038 12.0902C44.199 16.712 44.8327 21.2618 45.6669 25.7876C45.8113 26.5632 45.6669 27.4668 46.445 28.1305C47.6001 26.7232 48.5948 25.2998 49.5815 23.5807M46.5573 61.5784C46.5974 59.2675 46.5814 56.9726 46.0359 54.7017C41.5679 55.7572 37.5651 61.6184 37.7817 66.624C37.878 68.9189 38.8566 70.4781 40.4449 70.8859C41.8968 71.2537 43.8541 70.1982 44.9049 68.4391C45.3942 67.6155 45.8194 66.7599 45.9637 65.8004C46.1563 64.489 46.3488 63.1856 46.5493 61.5864L46.5573 61.5784Z" fill="white"/>
<path d="M76.6544 23.8445C75.5234 23.7006 75.2105 23.0209 75.3629 22.1413C75.5394 21.1338 76.3095 20.6301 77.264 20.5181C77.9699 20.4382 78.4913 20.806 78.6839 21.5097C78.9486 22.4852 78.4512 23.1409 77.6731 23.6126C77.4165 23.7646 77.0715 23.7726 76.6464 23.8445H76.6544Z" fill="white"/>
<path d="M89.7856 35.1751C89.5289 35.5189 89.3524 35.7988 89.0957 35.9667C88.446 36.4145 87.7321 36.6304 87.0502 36.0707C86.3764 35.5189 86.3443 34.7913 86.7374 34.0716C87.1465 33.32 87.7722 32.8482 88.6786 33.0241C89.5129 33.184 89.954 33.7198 89.9139 34.5994C89.9139 34.7593 89.8578 34.9112 89.7856 35.1751Z" fill="white"/>
<path d="M90.9007 27.9306C91.7911 27.3229 92.5852 27.2349 93.2831 27.9865C93.7644 28.5063 93.7884 29.138 93.4435 29.7537C93.0103 30.5133 92.3365 30.8732 91.4541 30.7692C90.1145 30.6173 89.8498 29.4818 90.9007 27.9306Z" fill="white"/>
<path d="M74.9137 29.202C73.9752 29.6657 73.133 29.8257 72.6356 28.8421C72.1463 27.8826 72.6196 27.107 73.4298 26.5472C74.1116 26.0835 74.8897 26.0195 75.4432 26.6752C76.2132 27.5947 75.8202 28.4263 74.9137 29.202Z" fill="white"/>
<path d="M76.7284 29.6672L74.9902 28.4336L74.632 28.9352L76.3702 30.1688L76.7284 29.6672Z" fill="white"/>
<path d="M79.8085 23.4132L78.0703 22.1795L77.7121 22.6811L79.4503 23.9147L79.8085 23.4132Z" fill="white"/>
<path d="M87.2719 34.2057L85.5337 32.972L85.1755 33.4736L86.9136 34.7072L87.2719 34.2057Z" fill="white"/>
<path d="M90.9684 28.2478L89.2302 27.0141L88.872 27.5157L90.6102 28.7493L90.9684 28.2478Z" fill="white"/>
</g>
<defs>
<clipPath id="clip0_12_174">
<rect width="107" height="117" fill="white"/>
</clipPath>
</defs>
</svg>
