<svg width="70" height="50" viewBox="0 0 70 50" fill="none" xmlns="http://www.w3.org/2000/svg">
<path d="M35.2231 0H35.6125C39.2088 0.013125 57.4306 0.144376 62.3438 1.46563C63.829 1.86886 65.1825 2.65485 66.2688 3.74504C67.3552 4.83522 68.1364 6.19143 68.5344 7.67812C68.9762 9.34062 69.2869 11.5413 69.4969 13.8119L69.5406 14.2669L69.6369 15.4044L69.6719 15.8594C69.9563 19.8581 69.9912 23.6031 69.9956 24.4212V24.7494C69.9912 25.5981 69.9519 29.5969 69.6369 33.7619L69.6019 34.2212L69.5625 34.6763C69.3438 37.1787 69.02 39.6637 68.5344 41.4925C68.1364 42.9792 67.3552 44.3354 66.2688 45.4256C65.1825 46.5158 63.829 47.3018 62.3438 47.705C57.2687 49.07 37.9794 49.1663 35.3062 49.1706H34.685C33.3331 49.1706 27.7419 49.1444 21.8794 48.9431L21.1356 48.9169L20.755 48.8994L20.0069 48.8688L19.2587 48.8381C14.4025 48.6237 9.77812 48.2781 7.6475 47.7006C6.16274 47.2978 4.80965 46.5124 3.72335 45.4231C2.63704 44.3337 1.85554 42.9784 1.45687 41.4925C0.97125 39.6681 0.6475 37.1787 0.42875 34.6763L0.39375 34.2169L0.35875 33.7619C0.14159 30.7974 0.021942 27.8267 0 24.8544L0 24.3162C0.00875 23.3756 0.04375 20.125 0.28 16.5375L0.310625 16.0869L0.32375 15.8594L0.35875 15.4044L0.455 14.2669L0.49875 13.8119C0.70875 11.5413 1.01937 9.33625 1.46125 7.67812C1.85925 6.19143 2.64045 4.83522 3.7268 3.74504C4.81315 2.65485 6.16659 1.86886 7.65188 1.46563C9.7825 0.896876 14.4069 0.546875 19.2631 0.328125L20.0069 0.2975L20.7594 0.271251L21.1356 0.258126L21.8837 0.227501C26.0475 0.0936408 30.2129 0.0192577 34.3787 0.0043752L35.2231 0ZM28 14.0437V35.1225L46.1869 24.5875L28 14.0437Z" fill="white"/>
</svg>
