<svg width="50" height="56" viewBox="0 0 50 56" fill="none" xmlns="http://www.w3.org/2000/svg">
<path d="M49.0004 22.9578C44.1879 22.9688 39.4848 21.4703 35.5692 18.6703V38.2156C35.5692 41.8359 34.4645 45.3688 32.3973 48.3438C30.3301 51.3187 27.4098 53.5937 24.0192 54.8625C20.6286 56.1312 16.9317 56.3391 13.4207 55.4422C9.9098 54.5453 6.7598 52.6094 4.37543 49.8859C1.99105 47.1625 0.51449 43.7609 0.109803 40.1625C-0.294885 36.5641 0.42699 32.9328 2.14418 29.75C3.86136 26.5672 6.51918 23.9859 9.75668 22.3453C12.9942 20.7047 16.6364 20.1031 20.2239 20.5953V30.4281C18.5832 29.9141 16.8223 29.925 15.1926 30.4719C13.5629 31.0188 12.1411 32.0687 11.1457 33.4578C10.1504 34.8469 9.61449 36.5312 9.62543 38.2594C9.63636 39.9875 10.1942 41.65 11.2114 43.0391C12.2286 44.4281 13.6614 45.4562 15.302 45.9813C16.9426 46.5062 18.7036 46.5062 20.3332 45.9703C21.9629 45.4344 23.3957 44.3953 24.402 43.0063C25.4082 41.6172 25.9551 39.9328 25.9551 38.2156V0H35.5801C35.5692 0.809375 35.6457 1.62969 35.7879 2.42812C36.127 4.21094 36.816 5.91719 37.8332 7.42656C38.8504 8.93594 40.1629 10.2266 41.6832 11.2109C43.8598 12.6438 46.4082 13.4094 49.0114 13.4094V22.9688L49.0004 22.9578Z" fill="white"/>
</svg>
